<?xml version="1.0" encoding="UTF-8" standalone="no"?>
<!-- Created with Inkscape (http://www.inkscape.org/) -->

<svg
   version="1.1"
   id="svg18"
   width="82.664185"
   height="63.995361"
   viewBox="0 0 82.664183 63.995362"
   sodipodi:docname="Weather-Color-Icon-Set.ai"
   xmlns:inkscape="http://www.inkscape.org/namespaces/inkscape"
   xmlns:sodipodi="http://sodipodi.sourceforge.net/DTD/sodipodi-0.dtd"
   xmlns="http://www.w3.org/2000/svg"
   xmlns:svg="http://www.w3.org/2000/svg">
  <defs
     id="defs22">
    <clipPath
       clipPathUnits="userSpaceOnUse"
       id="clipPath50698">
      <path
         d="M 0,2629.96 H 2000 V 0 H 0 Z"
         id="path50696" />
    </clipPath>
    <clipPath
       clipPathUnits="userSpaceOnUse"
       id="clipPath57958">
      <path
         d="m 904,1574.96 h 26.967 v -20 H 904 Z"
         id="path57956" />
    </clipPath>
    <clipPath
       clipPathUnits="userSpaceOnUse"
       id="clipPath57974">
      <path
         d="M 918.759,1588.96 H 958 v -30.35 h -39.241 z"
         id="path57972" />
    </clipPath>
    <clipPath
       clipPathUnits="userSpaceOnUse"
       id="clipPath57994">
      <path
         d="m 929.057,1600.96 h 34.941 v -27.75 h -34.941 z"
         id="path57992" />
    </clipPath>
  </defs>
  <sodipodi:namedview
     id="namedview20"
     pagecolor="#ffffff"
     bordercolor="#000000"
     borderopacity="0.25"
     inkscape:showpageshadow="2"
     inkscape:pageopacity="0.0"
     inkscape:pagecheckerboard="0"
     inkscape:deskcolor="#d1d1d1"
     showgrid="false" />
  <g
     id="g26"
     inkscape:groupmode="layer"
     inkscape:label="Page 1"
     transform="matrix(1.3333333,0,0,-1.3333333,-1204,2135.9439)">
    <g
       id="g50694"
       clip-path="url(#clipPath50698)">
      <g
         id="g90152">
        <g
           id="g57948"
           transform="translate(958,1566.9629)">
          <path
             d="m 0,0 c 0,6.625 -5.373,12 -11.998,12 -0.391,0 -0.775,-0.022 -1.156,-0.059 -2.362,5.891 -8.114,10.057 -14.844,10.057 -8.164,0 -14.885,-6.117 -15.867,-14.014 -0.045,0.002 -0.086,0.015 -0.133,0.015 C -49.52,7.999 -54,3.52 -54,-2.002 c 0,-5.523 4.48,-9.999 10.002,-9.999 H -11.93 C -5.336,-11.962 0,-6.604 0,0"
             style="fill:#cdf0f0;fill-opacity:1;fill-rule:nonzero;stroke:none"
             id="path57950" />
        </g>
        <g
           id="g57952">
          <g
             id="g57954" />
          <g
             id="g57966">
            <g
               clip-path="url(#clipPath57958)"
               opacity="0.100006"
               id="g57964">
              <g
                 transform="translate(914,1571.9585)"
                 id="g57962">
                <path
                   d="M 0,0 C 0,0.967 0.098,1.909 0.253,2.831 L 0,3 -0.001,3.002 C -5.521,3 -10,-1.479 -10,-7 c 0,-5.522 4.48,-9.999 10.002,-9.999 H 16.967 C 7.594,-16.98 0,-9.378 0,0"
                   style="fill:#000064;fill-opacity:1;fill-rule:nonzero;stroke:none"
                   id="path57960" />
              </g>
            </g>
          </g>
        </g>
        <g
           id="g57968">
          <g
             id="g57970" />
          <g
             id="g57982">
            <g
               clip-path="url(#clipPath57974)"
               opacity="0.5"
               id="g57980">
              <g
                 transform="translate(943.771,1578.7446)"
                 id="g57978">
                <path
                   d="m 0,0 -0.062,-0.012 z m 14.229,-11.785 c 0,6.628 -5.373,12 -12,12 -0.368,0 -0.73,-0.021 -1.089,-0.054 -0.022,0 -0.044,-0.001 -0.065,-0.003 -2.036,5.08 -6.596,8.869 -12.128,9.819 -0.175,0.027 -0.349,0.057 -0.526,0.08 -0.234,0.032 -0.468,0.06 -0.705,0.082 -0.491,0.042 -0.985,0.075 -1.487,0.075 -0.527,0 -1.048,-0.03 -1.562,-0.078 -3.768,-0.366 -7.139,-2.047 -9.679,-4.568 1.681,0.412 3.432,0.646 5.241,0.646 6.534,0 12.386,-2.862 16.414,-7.386 -0.377,-0.199 -0.747,-0.411 -1.099,-0.647 0.228,0.01 0.454,0.034 0.685,0.034 8.284,0 15,-6.715 15,-15 0,-1.152 -0.142,-2.268 -0.388,-3.345 2.094,2.16 3.388,5.1 3.388,8.345"
                   style="fill:#ffffff;fill-opacity:1;fill-rule:nonzero;stroke:none"
                   id="path57976" />
              </g>
            </g>
          </g>
        </g>
        <g
           id="g57984"
           transform="translate(963.998,1582.9629)">
          <path
             d="m 0,0 c 0,5.519 -4.471,9.993 -9.988,9.999 -1.959,4.696 -6.592,7.996 -11.998,7.996 -6.879,0 -12.494,-5.239 -12.955,-12 l 0.013,-0.041 c 0.309,0.018 0.616,0.043 0.93,0.043 6.732,0 12.484,-4.166 14.846,-10.057 0.381,0.036 0.765,0.059 1.154,0.059 4.335,0 8.122,-2.309 10.23,-5.755 l 0.012,0.006 C -3.314,-8.732 0,-4.753 0,0"
             style="fill:#cdf0f0;fill-opacity:1;fill-rule:nonzero;stroke:none"
             id="path57986" />
        </g>
        <g
           id="g57988">
          <g
             id="g57990" />
          <g
             id="g58002">
            <g
               clip-path="url(#clipPath57994)"
               opacity="0.100006"
               id="g58000">
              <g
                 transform="translate(963.998,1582.9629)"
                 id="g57998">
                <path
                   d="m 0,0 c 0,5.519 -4.471,9.993 -9.988,9.999 -1.959,4.696 -6.592,7.996 -11.998,7.996 -6.879,0 -12.494,-5.239 -12.955,-12 l 0.013,-0.041 c 0.309,0.018 0.616,0.043 0.93,0.043 6.732,0 12.484,-4.166 14.846,-10.057 0.381,0.036 0.765,0.059 1.154,0.059 4.335,0 8.122,-2.309 10.23,-5.755 l 0.012,0.006 C -3.314,-8.732 0,-4.753 0,0"
                   style="fill:#000064;fill-opacity:1;fill-rule:nonzero;stroke:none"
                   id="path57996" />
              </g>
            </g>
          </g>
        </g>
        <g
           id="g58004"
           transform="translate(956.2422,1573.2129)">
          <path
             d="m 0,0 c 4.441,1.018 7.756,4.997 7.756,9.75 0,5.519 -4.471,9.993 -9.988,9.999 -1.959,4.696 -6.592,7.996 -11.998,7.996 -6.879,0 -12.495,-5.239 -12.956,-12"
             style="fill:none;stroke:#2e4369;stroke-width:2;stroke-linecap:round;stroke-linejoin:round;stroke-miterlimit:10;stroke-dasharray:none;stroke-opacity:1"
             id="path58006" />
        </g>
        <g
           id="g58008"
           transform="translate(957.998,1566.9614)">
          <path
             d="m 0,0 c 0,6.626 -5.371,12 -11.998,12 -0.389,0 -0.773,-0.022 -1.154,-0.058 -2.362,5.891 -8.114,10.057 -14.846,10.057 -8.162,0 -14.885,-6.118 -15.865,-14.013 C -43.908,7.987 -43.951,8 -43.996,8 -49.52,8 -53.998,3.52 -53.998,-2.001 c 0,-5.522 4.478,-9.999 10.002,-9.999 h 32.068 C -5.334,-11.961 0,-6.605 0,0 Z"
             style="fill:none;stroke:#2e4369;stroke-width:2;stroke-linecap:round;stroke-linejoin:round;stroke-miterlimit:10;stroke-dasharray:none;stroke-opacity:1"
             id="path58010" />
        </g>
      </g>
    </g>
  </g>
</svg>
