<?xml version="1.0" encoding="UTF-8" standalone="no"?>
<!-- Created with Inkscape (http://www.inkscape.org/) -->

<svg
   version="1.1"
   id="svg18"
   width="96"
   height="96.000061"
   viewBox="0 0 95.999998 96.000062"
   sodipodi:docname="Weather-Color-Icon-Set.ai"
   xmlns:inkscape="http://www.inkscape.org/namespaces/inkscape"
   xmlns:sodipodi="http://sodipodi.sourceforge.net/DTD/sodipodi-0.dtd"
   xmlns="http://www.w3.org/2000/svg"
   xmlns:svg="http://www.w3.org/2000/svg">
  <defs
     id="defs22">
    <clipPath
       clipPathUnits="userSpaceOnUse"
       id="clipPath50698">
      <path
         d="M 0,2629.96 H 2000 V 0 H 0 Z"
         id="path50696" />
    </clipPath>
    <clipPath
       clipPathUnits="userSpaceOnUse"
       id="clipPath50710">
      <path
         d="m 410.739,1847.95 h 25.275 v -25.27 h -25.275 z"
         id="path50708" />
    </clipPath>
  </defs>
  <sodipodi:namedview
     id="namedview20"
     pagecolor="#ffffff"
     bordercolor="#000000"
     borderopacity="0.25"
     inkscape:showpageshadow="2"
     inkscape:pageopacity="0.0"
     inkscape:pagecheckerboard="0"
     inkscape:deskcolor="#d1d1d1"
     showgrid="false" />
  <g
     id="g26"
     inkscape:groupmode="layer"
     inkscape:label="Page 1"
     transform="matrix(1.3333333,0,0,-1.3333333,-373.44935,2536.8997)">
    <g
       id="g50694"
       clip-path="url(#clipPath50698)">
      <g
         id="g72342"
         transform="matrix(1.1395103,0,0,1.1132885,-165.46151,-173.56367)"
         inkscape:export-filename="../2bc6144a/sunny.svg"
         inkscape:export-xdpi="1"
         inkscape:export-ydpi="1">
        <g
           id="g72292"
           transform="translate(436.0137,1833.9502)">
          <path
             d="m 0,0 c 0,-7.732 -6.268,-14 -14,-14 -7.732,0 -14,6.268 -14,14 0,7.732 6.268,14 14,14 C -6.268,14 0,7.732 0,0"
             style="fill:#ffcc00;fill-opacity:1;fill-rule:nonzero;stroke:none"
             id="path72290" />
        </g>
        <g
           id="g72304">
          <g
             id="g72294" />
          <g
             id="g72302">
            <g
               clip-path="url(#clipPath50710)"
               opacity="0.5"
               id="g72300">
              <g
                 transform="translate(422.0137,1847.9502)"
                 id="g72298">
                <path
                   d="M 0,0 C -4.632,0 -8.727,-2.259 -11.275,-5.725 -8.955,-4.02 -6.1,-3 -3,-3 4.732,-3 11,-9.268 11,-17 11,-20.1 9.98,-22.955 8.275,-25.275 11.741,-22.727 14,-18.632 14,-14 14,-6.268 7.732,0 0,0"
                   style="fill:#ffffff;fill-opacity:1;fill-rule:nonzero;stroke:none"
                   id="path72296" />
              </g>
            </g>
          </g>
        </g>
        <g
           id="g72308"
           transform="translate(436.0137,1833.9502)">
          <path
             d="m 0,0 c 0,-7.732 -6.268,-14 -14,-14 -7.732,0 -14,6.268 -14,14 0,7.732 6.268,14 14,14 C -6.268,14 0,7.732 0,0 Z"
             style="fill:none;stroke:#2e4369;stroke-width:2;stroke-linecap:round;stroke-linejoin:round;stroke-miterlimit:10;stroke-dasharray:none;stroke-opacity:1"
             id="path72306" />
        </g>
        <g
           id="g72312"
           transform="translate(422,1863.96)">
          <path
             d="M 0,0 V -7.998"
             style="fill:none;stroke:#2e4369;stroke-width:2;stroke-linecap:round;stroke-linejoin:round;stroke-miterlimit:10;stroke-dasharray:none;stroke-opacity:1"
             id="path72310" />
        </g>
        <g
           id="g72316"
           transform="translate(422,1811.958)">
          <path
             d="M 0,0 V -7.997"
             style="fill:none;stroke:#2e4369;stroke-width:2;stroke-linecap:round;stroke-linejoin:round;stroke-miterlimit:10;stroke-dasharray:none;stroke-opacity:1"
             id="path72314" />
        </g>
        <g
           id="g72320"
           transform="translate(452,1833.9609)">
          <path
             d="M 0,0 H -7.998"
             style="fill:none;stroke:#2e4369;stroke-width:2;stroke-linecap:round;stroke-linejoin:round;stroke-miterlimit:10;stroke-dasharray:none;stroke-opacity:1"
             id="path72318" />
        </g>
        <g
           id="g72324"
           transform="translate(399.998,1833.9609)">
          <path
             d="M 0,0 H -7.998"
             style="fill:none;stroke:#2e4369;stroke-width:2;stroke-linecap:round;stroke-linejoin:round;stroke-miterlimit:10;stroke-dasharray:none;stroke-opacity:1"
             id="path72322" />
        </g>
        <g
           id="g72328"
           transform="translate(400.7871,1855.1738)">
          <path
             d="M 0,0 5.654,-5.656"
             style="fill:none;stroke:#2e4369;stroke-width:2;stroke-linecap:round;stroke-linejoin:round;stroke-miterlimit:10;stroke-dasharray:none;stroke-opacity:1"
             id="path72326" />
        </g>
        <g
           id="g72332"
           transform="translate(437.5566,1818.4033)">
          <path
             d="M 0,0 5.656,-5.656"
             style="fill:none;stroke:#2e4369;stroke-width:2;stroke-linecap:round;stroke-linejoin:round;stroke-miterlimit:10;stroke-dasharray:none;stroke-opacity:1"
             id="path72330" />
        </g>
        <g
           id="g72336"
           transform="translate(443.2129,1855.1738)">
          <path
             d="M 0,0 -5.656,-5.655"
             style="fill:none;stroke:#2e4369;stroke-width:2;stroke-linecap:round;stroke-linejoin:round;stroke-miterlimit:10;stroke-dasharray:none;stroke-opacity:1"
             id="path72334" />
        </g>
        <g
           id="g72340"
           transform="translate(406.4414,1818.4033)">
          <path
             d="M 0,0 -5.656,-5.656"
             style="fill:none;stroke:#2e4369;stroke-width:2;stroke-linecap:round;stroke-linejoin:round;stroke-miterlimit:10;stroke-dasharray:none;stroke-opacity:1"
             id="path72338" />
        </g>
      </g>
    </g>
  </g>
</svg>
