<?xml version="1.0" encoding="UTF-8" standalone="no"?>
<!-- Created with Inkscape (http://www.inkscape.org/) -->

<svg
   version="1.1"
   id="svg29030"
   width="82.666626"
   height="61.320007"
   viewBox="0 0 82.666626 61.320007"
   sodipodi:docname="Weather-Color-Icon-Set.eps"
   xmlns:inkscape="http://www.inkscape.org/namespaces/inkscape"
   xmlns:sodipodi="http://sodipodi.sourceforge.net/DTD/sodipodi-0.dtd"
   xmlns="http://www.w3.org/2000/svg"
   xmlns:svg="http://www.w3.org/2000/svg">
  <defs
     id="defs29034" />
  <sodipodi:namedview
     id="namedview29032"
     pagecolor="#ffffff"
     bordercolor="#000000"
     borderopacity="0.25"
     inkscape:showpageshadow="2"
     inkscape:pageopacity="0.0"
     inkscape:pagecheckerboard="0"
     inkscape:deskcolor="#d1d1d1"
     showgrid="false" />
  <g
     id="g29038"
     inkscape:groupmode="layer"
     inkscape:label="Page 1"
     transform="matrix(1.3333333,0,0,-1.3333333,-1539.5867,1781.3199)">
    <g
       id="g29040"
       transform="scale(0.1)">
      <path
         d="m 12116.9,13110 h -80 c -11.1,0 -20,8.9 -20,20 0,11 8.9,20 20,20 h -0.1 c 22.1,0 40,17.9 40,40 0,22.1 -17.9,40 -40,40 h -259.9 c -11.1,0 -20,8.9 -20,20 0,10.9 8.8,19.8 19.8,19.9 v 0 c 22.1,0 40,18 40,40 0,22.1 -17.9,40 -40,40 h -159.8 c -22.1,0 -40,-17.9 -40,-40 0,-22 17.9,-40 40,-40 h 60.2 c 10.9,-0.1 19.8,-9 19.8,-19.9 0,-11.1 -9,-20 -20,-20 h -40 c -22.1,0 -40,-17.9 -40,-40 0,-22.1 17.9,-40 40,-40 h 250 c 11,0 20,-9 20,-20 0,-11.1 -9,-20 -20,-20 h -290 c -22.1,0 -40,-17.9 -40,-40 0,-22.1 17.9,-40 40,-40 h 520 c 22.1,0 40,17.9 40,40 0,22.1 -17.9,40 -40,40"
         style="fill:#ebf4fc;fill-opacity:1;fill-rule:nonzero;stroke:none"
         id="path57302" />
      <path
         d="m 11896.9,13269.9 h 59.8 c 22,0 40,18 40,40 0,22.1 -18,40 -40,40 h -59.8 c -22.1,0 -40,-17.9 -40,-40 0,-22 17.9,-40 40,-40"
         style="fill:#ebf4fc;fill-opacity:1;fill-rule:nonzero;stroke:none"
         id="path57304" />
      <path
         d="m 12076.9,13269.9 h 9.7 c 22.1,0 40,18 40,40 0,22.1 -17.9,40 -40,40 h -9.7 c -22.1,0 -40,-17.9 -40,-40 0,-22 17.9,-40 40,-40"
         style="fill:#ebf4fc;fill-opacity:1;fill-rule:nonzero;stroke:none"
         id="path57306" />
      <path
         d="m 12036.6,12990 h -159.8 c -22.1,0 -40,-17.9 -40,-40 0,-22.1 17.9,-40 40,-40 h 159.8 c 22.1,0 40,17.9 40,40 0,22.1 -17.9,40 -40,40"
         style="fill:#ebf4fc;fill-opacity:1;fill-rule:nonzero;stroke:none"
         id="path57308" />
      <path
         d="m 11756.6,12990 h -29.8 c -22.1,0 -40,-17.9 -40,-40 0,-22.1 17.9,-40 40,-40 h 29.8 c 22.1,0 40,17.9 40,40 0,22.1 -17.9,40 -40,40"
         style="fill:#ebf4fc;fill-opacity:1;fill-rule:nonzero;stroke:none"
         id="path57310" />
      <path
         d="m 12023.8,13145 c -0.1,0 -0.1,0 -0.1,0 3.4,3 7.8,4.9 12.7,5 -4.9,-0.2 -9.2,-2.1 -12.6,-5 m 12.6,5 c 0.1,0 0.2,0 0.2,0 0,0 -0.1,0 -0.2,0 m 40.4,40 c 0,0.1 0,0.1 0,0.2 0,-0.1 0,-0.1 0,-0.2"
         style="fill:#dddaec;fill-opacity:1;fill-rule:nonzero;stroke:none"
         id="path57312" />
      <path
         d="m 12023.7,13145 c -4.2,3.7 -6.8,9 -6.8,15 0,11 8.9,20 20,20 h -0.1 c 16.8,0 31.1,10.3 37.1,25 1.8,-4.6 2.9,-9.6 2.9,-14.8 0,-0.1 0,-0.1 0,-0.2 v 0 c 0,-22.1 -17.9,-40 -40,-40 v 0 0 h 0.1 v 0 c -0.1,0 -0.2,0 -0.3,0 0,0 -0.1,0 -0.2,0 v 0 c -4.9,-0.1 -9.3,-2 -12.7,-5"
         style="fill:#c7cce7;fill-opacity:1;fill-rule:nonzero;stroke:none"
         id="path57314" />
      <path
         d="m 12126.6,13309.9 c 0,0.1 0,0.2 0,0.3 0,-0.1 0,-0.2 0,-0.3"
         style="fill:#dddaec;fill-opacity:1;fill-rule:nonzero;stroke:none"
         id="path57316" />
      <path
         d="m 12086.6,13269.9 h -9.7 c -22.1,0 -40,18 -40,40 0,5.4 1.1,10.4 3,15 5.9,-14.6 20.2,-25 37,-25 h 9.7 c 16.8,0 31.1,10.4 37,25 1.9,-4.5 3,-9.5 3,-14.7 0,-0.1 0,-0.2 0,-0.3 v 0 c 0,-22 -17.9,-40 -40,-40"
         style="fill:#c7cce7;fill-opacity:1;fill-rule:nonzero;stroke:none"
         id="path57318" />
      <path
         d="m 11900,13145 c -3.4,2.9 -7.8,4.8 -12.7,5 4.9,-0.1 9.3,-2 12.7,-5 0,0 0,0 0,0 m -12.7,5 c -0.1,0 -0.1,0 -0.2,0 0.1,0 0.1,0 0.2,0"
         style="fill:#dddaec;fill-opacity:1;fill-rule:nonzero;stroke:none"
         id="path57320" />
      <path
         d="m 11900,13145 c -3.4,3 -7.8,4.9 -12.7,5 v 0 c -0.1,0 -0.1,0 -0.2,0 -0.1,0 -0.2,0 -0.2,0 v 0 h -250 c -22.1,0 -40,17.9 -40,40 0,5.3 1.1,10.3 3,15 5.9,-14.7 20.2,-25 37,-25 h 250 c 11,0 20,-9 20,-20 0,-6 -2.7,-11.3 -6.9,-15"
         style="fill:#c7cce7;fill-opacity:1;fill-rule:nonzero;stroke:none"
         id="path57322" />
      <path
         d="m 11996.7,13309.9 c 0,0.1 -0.1,0.2 -0.1,0.3 0,-0.1 0.1,-0.2 0.1,-0.3"
         style="fill:#dddaec;fill-opacity:1;fill-rule:nonzero;stroke:none"
         id="path57324" />
      <path
         d="m 11956.7,13269.9 h -59.8 c -22.1,0 -40,18 -40,40 0,5.4 1.1,10.4 3,15 5.9,-14.6 20.2,-25 37,-25 h 59.8 c 16.7,0 31,10.4 37,25 1.8,-4.5 2.9,-9.5 2.9,-14.7 0,-0.1 0.1,-0.2 0.1,-0.3 v 0 c 0,-22 -18,-40 -40,-40"
         style="fill:#c7cce7;fill-opacity:1;fill-rule:nonzero;stroke:none"
         id="path57326" />
      <path
         d="m 11763.8,13265 c 0,0 -0.1,0 -0.1,0 3.4,3 7.7,4.8 12.5,4.9 -4.8,-0.1 -9.1,-2 -12.4,-4.9 m 12.4,4.9 c 0.1,0 0.2,0 0.2,0 0,0 -0.1,0 -0.2,0"
         style="fill:#dddaec;fill-opacity:1;fill-rule:nonzero;stroke:none"
         id="path57328" />
      <path
         d="m 11763.7,13265 c -4.1,3.7 -6.8,9 -6.8,15 0,10.9 8.8,19.8 19.8,19.9 v 0 c 16.8,0 31.1,10.4 37,25 1.9,-4.6 3,-9.6 3,-15 0,-22 -17.9,-40 -40,-40 v 0 0 c -0.1,0 -0.2,0 -0.3,0 0,0 -0.1,0 -0.2,0 v 0 c -4.8,-0.1 -9.1,-1.9 -12.5,-4.9"
         style="fill:#c7cce7;fill-opacity:1;fill-rule:nonzero;stroke:none"
         id="path57330" />
      <path
         d="m 12076.6,12950 c 0,0.1 0,0.1 0,0.2 0,-0.1 0,-0.1 0,-0.2"
         style="fill:#dddaec;fill-opacity:1;fill-rule:nonzero;stroke:none"
         id="path57332" />
      <path
         d="m 12036.6,12910 h -159.8 c -22.1,0 -40,17.9 -40,40 0,5.3 1.1,10.3 2.9,15 6,-14.7 20.3,-25 37.1,-25 h 159.8 c 16.8,0 31.1,10.3 37,25 1.9,-4.6 2.9,-9.6 3,-14.8 0,-0.1 0,-0.1 0,-0.2 v 0 c 0,-2.2 -0.2,-4.4 -0.6,-6.5 -0.2,-1.7 -0.6,-3.4 -1.1,-5 -4.9,-16.5 -20.2,-28.5 -38.3,-28.5"
         style="fill:#c7cce7;fill-opacity:1;fill-rule:nonzero;stroke:none"
         id="path57334" />
      <path
         d="m 12116.9,13030 h -520 c -22.1,0 -40,17.9 -40,40 0,5.3 1,10.3 2.9,15 6,-14.7 20.3,-25 37.1,-25 h 520 c 16.7,0 31.1,10.3 37,25 1.9,-4.6 2.9,-9.6 3,-14.8 0,-0.1 0,-0.1 0,-0.2 v 0 c 0,-22.1 -17.9,-40 -40,-40"
         style="fill:#c7cce7;fill-opacity:1;fill-rule:nonzero;stroke:none"
         id="path57336" />
      <path
         d="m 11756.6,12910 h -29.8 c -22.1,0 -40,17.9 -40,40 0,5.3 1.1,10.3 3,15 5.9,-14.7 20.2,-25 37,-25 h 29.8 c 16.7,0 31.1,10.3 37,25 1.9,-4.6 2.9,-9.6 3,-14.8 0,-0.1 0,-0.1 0,-0.2 v 0 c 0,-2.2 -0.2,-4.4 -0.6,-6.5 -0.2,-1.7 -0.6,-3.4 -1.1,-5 -4.9,-16.5 -20.2,-28.5 -38.3,-28.5"
         style="fill:#c7cce7;fill-opacity:1;fill-rule:nonzero;stroke:none"
         id="path57338" />
      <path
         d="m 11690,13265 c -3.4,2.9 -7.7,4.8 -12.5,4.9 4.8,-0.1 9.2,-1.9 12.5,-4.9 0,0 0,0 0,0 m -12.5,4.9 c -0.1,0 -0.1,0 -0.2,0 0.1,0 0.1,0 0.2,0"
         style="fill:#dddaec;fill-opacity:1;fill-rule:nonzero;stroke:none"
         id="path57340" />
      <path
         d="m 11690,13265 c -3.3,3 -7.7,4.8 -12.5,4.9 v 0 c -0.1,0 -0.1,0 -0.2,0 -0.1,0 -0.2,0 -0.2,0 v 0 h -60.2 c -22.1,0 -40,18 -40,40 0,5.4 1.1,10.4 3,15 5.9,-14.6 20.2,-25 37,-25 h 60.2 c 10.9,-0.1 19.8,-9 19.8,-19.9 0,-6 -2.7,-11.3 -6.9,-15"
         style="fill:#c7cce7;fill-opacity:1;fill-rule:nonzero;stroke:none"
         id="path57342" />
      <path
         d="m 12116.9,13110 v 10 h -80 c -5.6,0 -10,4.4 -10,10 0,5.5 4.4,10 10,10 2.6,0 5.2,1 7,2.9 1.9,1.9 3,4.4 3,7.1 0,2.6 -1.1,5.2 -3,7 -1.8,1.9 -4.4,3 -7,3 h -0.1 c -2.6,0 -5.2,-1.1 -7,-3 -1.9,-1.8 -3,-4.4 -3,-7 0,-2.7 1.1,-5.2 3,-7.1 1.8,-1.9 4.4,-2.9 7,-2.9 27.6,0 50,22.4 50,50 0,27.6 -22.4,50 -50,50 h -259.9 c -5.6,0 -10,4.4 -10,10 0,5.4 4.4,9.9 9.9,9.9 h -0.1 v 0 c 27.6,0.1 50,22.4 50,50 0,27.7 -22.4,50 -50,50 h -159.8 c -27.6,0 -50,-22.3 -50,-50 0,-27.6 22.4,-49.9 50,-50 h 60.2 -0.1 c 5.4,0 9.9,-4.5 9.9,-9.9 0,-5.6 -4.5,-10 -10,-10 h -40 c -27.6,0 -50,-22.4 -50,-50 0,-27.6 22.4,-50 50,-50 h 250 c 5.5,0 10,-4.5 10,-10 0,-5.6 -4.5,-10 -10,-10 h -290 c -27.7,0 -50,-22.4 -50,-50 0,-27.6 22.3,-50 50,-50 h 520 c 27.6,0 50,22.4 50,50 0,27.6 -22.4,50 -50,50 v -10 -10 c 16.5,-0.1 29.9,-13.5 30,-30 -0.1,-16.6 -13.5,-30 -30,-30 h -520 c -16.6,0 -30,13.4 -30,30 0,16.5 13.4,29.9 30,30 h 290 c 16.5,0 30,13.4 30,30 0,16.5 -13.5,30 -30,30 h -250 c -16.6,0 -30,13.4 -30,30 0,16.5 13.4,29.9 30,30 h 40 c 16.5,0 30,13.4 30,30 0,16.4 -13.3,29.8 -29.7,29.9 h -0.1 -60.2 c -16.6,0.1 -30,13.5 -30,30 0,16.6 13.4,30 30,30 h 159.8 c 16.6,0 30,-13.4 30,-30 0,-16.5 -13.4,-29.9 -30,-30 v 0 h -0.1 c -16.5,-0.1 -29.7,-13.5 -29.7,-29.9 0,-16.6 13.4,-30 30,-30 h 259.9 c 16.6,-0.1 30,-13.5 30,-30 0,-16.6 -13.4,-30 -30,-30 -2.6,0 -5.2,-1.1 -7,-3 -1.9,-1.8 -3,-4.4 -3,-7 0,-2.7 1.1,-5.2 3,-7.1 1.8,-1.9 4.4,-2.9 7,-2.9 h 0.1 c 2.6,0 5.2,1 7,2.9 1.9,1.9 3,4.4 3,7.1 0,2.6 -1.1,5.2 -3,7 -1.8,1.9 -4.4,3 -7,3 -16.6,0 -30,-13.5 -30,-30 0,-16.6 13.4,-30 30,-30 h 80 v 10"
         style="fill:#2d3e68;fill-opacity:1;fill-rule:nonzero;stroke:none"
         id="path57344" />
      <path
         d="m 11896.9,13269.9 v -10 h 59.8 c 27.6,0.1 49.9,22.4 50,50 -0.1,27.7 -22.4,50 -50,50 h -59.8 c -27.6,0 -50,-22.3 -50,-50 0,-27.6 22.4,-49.9 50,-50 v 10 10 c -16.6,0.1 -30,13.5 -30,30 0,16.6 13.4,30 30,30 h 59.8 c 16.5,0 29.9,-13.4 30,-30 -0.1,-16.5 -13.5,-29.9 -30,-30 h -59.8 v -10"
         style="fill:#2d3e68;fill-opacity:1;fill-rule:nonzero;stroke:none"
         id="path57346" />
      <path
         d="m 12076.9,13269.9 v -10 h 9.7 c 27.6,0.1 50,22.4 50,50 0,27.7 -22.4,50 -50,50 h -9.7 c -27.6,0 -50,-22.3 -50,-50 0,-27.6 22.4,-49.9 50,-50 v 10 10 c -16.6,0.1 -30,13.5 -30,30 0,16.6 13.4,30 30,30 h 9.7 c 16.6,0 30,-13.4 30,-30 0,-16.5 -13.4,-29.9 -30,-30 h -9.7 v -10"
         style="fill:#2d3e68;fill-opacity:1;fill-rule:nonzero;stroke:none"
         id="path57348" />
      <path
         d="m 12036.6,12990 v 10 h -159.8 c -27.6,0 -50,-22.4 -50,-50 0,-27.6 22.4,-50 50,-50 h 159.8 c 27.6,0 50,22.4 50,50 0,27.6 -22.4,50 -50,50 v -10 -10 c 16.5,-0.1 29.9,-13.5 30,-30 -0.1,-16.6 -13.5,-30 -30,-30 h -159.8 c -16.6,0 -30,13.4 -30,30 0,16.5 13.4,29.9 30,30 h 159.8 v 10"
         style="fill:#2d3e68;fill-opacity:1;fill-rule:nonzero;stroke:none"
         id="path57350" />
      <path
         d="m 11756.6,12990 v 10 h -29.8 c -27.6,0 -50,-22.4 -50,-50 0,-27.6 22.4,-50 50,-50 h 29.8 c 27.6,0 50,22.4 50,50 0,27.6 -22.4,50 -50,50 v -10 -10 c 16.5,-0.1 29.9,-13.5 30,-30 -0.1,-16.6 -13.5,-30 -30,-30 h -29.8 c -16.6,0 -30,13.4 -30,30 0,16.5 13.4,29.9 30,30 h 29.8 v 10"
         style="fill:#2d3e68;fill-opacity:1;fill-rule:nonzero;stroke:none"
         id="path57352" />
    </g>
  </g>
</svg>
