<?xml version="1.0" encoding="UTF-8" standalone="no"?>
<!-- Created with Inkscape (http://www.inkscape.org/) -->

<svg
   version="1.1"
   id="svg29030"
   width="80.010651"
   height="82.65332"
   viewBox="0 0 80.010651 82.65332"
   sodipodi:docname="Weather-Color-Icon-Set.eps"
   xmlns:inkscape="http://www.inkscape.org/namespaces/inkscape"
   xmlns:sodipodi="http://sodipodi.sourceforge.net/DTD/sodipodi-0.dtd"
   xmlns="http://www.w3.org/2000/svg"
   xmlns:svg="http://www.w3.org/2000/svg">
  <defs
     id="defs29034" />
  <sodipodi:namedview
     id="namedview29032"
     pagecolor="#ffffff"
     bordercolor="#000000"
     borderopacity="0.25"
     inkscape:showpageshadow="2"
     inkscape:pageopacity="0.0"
     inkscape:pagecheckerboard="0"
     inkscape:deskcolor="#d1d1d1"
     showgrid="false" />
  <g
     id="g29038"
     inkscape:groupmode="layer"
     inkscape:label="Page 1"
     transform="matrix(1.3333333,0,0,-1.3333333,-343.57199,1113.3199)">
    <g
       id="g29040"
       transform="scale(0.1)">
      <g
         id="g61439">
        <path
           d="m 3067.08,8120 c -19.59,46.9 -65.92,79.9 -119.98,79.9 -68.79,0 -124.94,-53.4 -129.57,-121 -3.48,0.5 -6.93,1.1 -10.57,1.1 -44.18,0 -80,-35.9 -80,-80 0,-44.2 35.82,-80 80,-80 h 260 c 55.22,0 99.99,44.7 99.99,100 0,55.2 -44.72,99.9 -99.87,100"
           style="fill:#d1efed;fill-opacity:1;fill-rule:nonzero;stroke:none"
           id="path55344" />
        <path
           d="m 2956.86,7920 h -149.9 c -44.18,0 -80,35.8 -80,80 0,18.6 6.39,35.8 17.1,49.4 h 0.02 c 14.66,18.5 37.31,30.5 62.81,30.5 3.63,0 7.09,-0.6 10.56,-1 0.01,0 0.01,0 0.01,0 0.02,0 0.05,0 0.07,0 l 0.04,0.4 0.68,-0.7 c -0.82,-6.1 -1.39,-12.3 -1.39,-18.6 0,-77.4 62.69,-140 140,-140"
           style="fill:#bbdee4;fill-opacity:1;fill-rule:nonzero;stroke:none"
           id="path55346" />
        <path
           d="m 2946.3,8199.9 c 0.01,0 0.02,0 0.03,0 -0.02,0 -0.02,0 -0.03,0"
           style="fill:#ffffff;fill-opacity:1;fill-rule:nonzero;stroke:none"
           id="path55348" />
        <path
           d="m 3134.53,7946.5 c 1.51,7.6 2.34,15.4 2.34,23.5 0,66.2 -53.73,120 -120,120 -8.04,0 -15.88,-0.9 -23.48,-2.4 9.73,10.6 21.75,19 35.19,24.6 -32.81,35.5 -79.58,57.8 -131.72,57.8 -12.86,0 -25.32,-1.6 -37.4,-4.2 22.91,21 53.33,33.9 86.84,34.1 0.01,0 0.01,0 0.03,0 0.25,0 0.51,0 0.77,0 54.06,0 100.39,-33 119.98,-79.9 2.11,0 4.17,-0.2 6.25,-0.4 h 0.01 c 52.2,-3.3 93.52,-46.6 93.52,-99.6 0,-29.1 -12.49,-55.2 -32.33,-73.5"
           style="fill:#eaf8f7;fill-opacity:1;fill-rule:nonzero;stroke:none"
           id="path55350" />
        <path
           d="m 2806.89,8079.9 c 3.63,0 7.09,-0.6 10.56,-1 2.93,42.8 26.55,79.8 60.93,101.3 l -0.03,0.1 c -15.55,35 -50.67,59.5 -91.48,59.5 -55.24,0 -100,-44.8 -100,-100 0,-39.9 23.38,-74.4 57.18,-90.4 h 0.03 c 14.66,18.5 37.31,30.5 62.81,30.5"
           style="fill:#fbca07;fill-opacity:1;fill-rule:nonzero;stroke:none"
           id="path55352" />
        <path
           d="m 2878.13,8180.7 c -0.02,0.1 -0.04,0.1 -0.07,0.2 0.03,-0.1 0.05,-0.1 0.07,-0.2"
           style="fill:#e8e6f2;fill-opacity:1;fill-rule:nonzero;stroke:none"
           id="path55354" />
        <path
           d="m 2744.08,8049.4 h -0.03 v 0 c -10.29,4.9 -19.44,11.6 -27.44,19.6 11.86,6.9 25.62,11 40.36,11 3.63,0 7.08,-0.6 10.56,-1.1 3.98,58.1 46.05,105.6 101.46,117.9 3.47,-5 6.54,-10.3 9.07,-15.9 0.03,-0.1 0.05,-0.1 0.07,-0.2 0.08,-0.1 0.15,-0.3 0.22,-0.4 l 0.03,-0.1 c -12.75,-7.9 -24.02,-18.1 -33.3,-29.8 -6.82,-8.6 -12.56,-18.1 -17.03,-28.3 -0.73,-1.7 -1.42,-3.4 -2.07,-5 -4.67,-12 -7.61,-24.8 -8.53,-38.2 -3.47,0.4 -6.93,1 -10.56,1 -25.5,0 -48.15,-12 -62.81,-30.5"
           style="fill:#dfb311;fill-opacity:1;fill-rule:nonzero;stroke:none"
           id="path55356" />
        <path
           d="m 2748.34,8058.6 c -30.43,14.4 -51.48,45.4 -51.47,81.3 0,24.9 10.05,47.4 26.35,63.7 16.32,16.3 38.76,26.3 63.65,26.3 36.74,0 68.33,-22 82.34,-53.6 2.24,-5 8.14,-7.3 13.19,-5 5.05,2.2 7.33,8.1 5.09,13.2 -17.09,38.5 -55.73,65.4 -100.62,65.4 -60.76,0 -110,-49.2 -110,-110 0.01,-43.9 25.71,-81.8 62.9,-99.4 4.99,-2.4 10.95,-0.2 13.32,4.7 2.36,5 0.24,11 -4.75,13.4"
           style="fill:#2d3e68;fill-opacity:1;fill-rule:nonzero;stroke:none"
           id="path55358" />
        <path
           d="m 2776.89,8339.9 v -40.2 c 0,-5.5 4.47,-10 10,-10 5.52,0 10,4.5 10,10 v 40.2 c 0,5.5 -4.48,10 -10,10 -5.53,0 -10,-4.5 -10,-10"
           style="fill:#2d3e68;fill-opacity:1;fill-rule:nonzero;stroke:none"
           id="path55360" />
        <path
           d="m 2626.98,8149.8 h -40.19 c -5.53,0 -10,-4.4 -10,-10 0,-5.5 4.47,-10 10,-10 h 40.19 c 5.53,0 10,4.5 10,10 0,5.6 -4.47,10 -10,10"
           style="fill:#2d3e68;fill-opacity:1;fill-rule:nonzero;stroke:none"
           id="path55362" />
        <path
           d="m 2644.19,8268.4 22.56,-22.6 c 3.9,-3.9 10.23,-3.9 14.14,0 3.91,3.9 3.91,10.3 0,14.2 l -22.56,22.5 c -3.9,3.9 -10.24,3.9 -14.14,0 -3.91,-3.9 -3.91,-10.2 0,-14.1"
           style="fill:#2d3e68;fill-opacity:1;fill-rule:nonzero;stroke:none"
           id="path55364" />
        <path
           d="m 2915.42,8282.5 -22.54,-22.5 c -3.91,-3.9 -3.9,-10.3 0,-14.2 3.91,-3.9 10.24,-3.9 14.14,0 l 22.54,22.6 c 3.91,3.9 3.91,10.2 0,14.1 -3.91,3.9 -10.24,3.9 -14.14,0"
           style="fill:#2d3e68;fill-opacity:1;fill-rule:nonzero;stroke:none"
           id="path55366" />
        <path
           d="m 2666.75,8033.9 -22.56,-22.6 c -3.91,-3.9 -3.91,-10.2 0,-14.2 3.9,-3.9 10.24,-3.9 14.14,0 l 22.56,22.6 c 3.91,3.9 3.91,10.2 0,14.2 -3.91,3.9 -10.24,3.9 -14.14,0"
           style="fill:#2d3e68;fill-opacity:1;fill-rule:nonzero;stroke:none"
           id="path55368" />
        <path
           d="m 3067,8120.1 9.23,3.8 c -21.08,50.6 -70.99,86.1 -129.21,86.1 -74.09,0 -134.56,-57.5 -139.55,-130.3 l 9.98,-0.7 1.34,9.9 c -3.23,0.4 -7.17,1.1 -11.9,1.2 -49.71,0 -90,-40.3 -90,-90 0,-49.8 40.29,-90 90,-90 h 260 c 60.74,0 109.97,49.2 109.98,110 -0.01,60.7 -49.18,109.9 -109.86,110 l -0.01,-10 9.23,3.8 -9.23,-3.8 -0.01,-10 c 49.63,-0.1 89.88,-40.4 89.88,-90 -0.01,-24.9 -10.06,-47.4 -26.36,-63.7 -16.32,-16.3 -38.75,-26.3 -63.62,-26.3 h -260 c -19.37,0 -36.8,7.8 -49.5,20.5 -12.68,12.7 -20.5,30.1 -20.5,49.5 0,19.3 7.81,36.8 20.5,49.5 12.7,12.6 30.14,20.5 49.5,20.5 2.52,0 5.5,-0.5 9.23,-1 2.75,-0.4 5.49,0.4 7.65,2.1 2.16,1.8 3.47,4.3 3.66,7.1 4.27,62.4 56.11,111.7 119.59,111.7 49.91,0 92.66,-30.4 110.75,-73.8 1.56,-3.7 5.18,-6.1 9.22,-6.1 l 0.01,10"
           style="fill:#2d3e68;fill-opacity:1;fill-rule:nonzero;stroke:none"
           id="path55370" />
        <path
           d="m 2759.8,7867 -20,-20 c -3.91,-3.9 -3.91,-10.2 -0.01,-14.1 3.91,-3.9 10.24,-3.9 14.14,0 l 20,20 c 3.91,3.9 3.91,10.2 0.01,14.1 -3.91,3.9 -10.24,3.9 -14.14,0"
           style="fill:#2d3e68;fill-opacity:1;fill-rule:nonzero;stroke:none"
           id="path55372" />
        <path
           d="m 2859.27,7866.5 -60,-70 c -3.59,-4.2 -3.11,-10.5 1.09,-14.1 4.19,-3.6 10.5,-3.1 14.1,1.1 l 60,69.9 c 3.59,4.2 3.11,10.6 -1.09,14.1 -4.19,3.6 -10.5,3.2 -14.1,-1"
           style="fill:#2d3e68;fill-opacity:1;fill-rule:nonzero;stroke:none"
           id="path55374" />
        <path
           d="m 2959.8,7867 -20,-20 c -3.91,-3.9 -3.91,-10.2 -0.01,-14.1 3.91,-3.9 10.24,-3.9 14.14,0 l 20,20 c 3.91,3.9 3.91,10.2 0.01,14.1 -3.91,3.9 -10.24,3.9 -14.14,0"
           style="fill:#2d3e68;fill-opacity:1;fill-rule:nonzero;stroke:none"
           id="path55376" />
        <path
           d="m 3059.34,7866.5 -70,-80 c -3.64,-4.1 -3.22,-10.4 0.94,-14.1 4.16,-3.6 10.47,-3.2 14.11,1 l 70,80 c 3.64,4.1 3.22,10.4 -0.94,14.1 -4.15,3.6 -10.47,3.2 -14.11,-1"
           style="fill:#2d3e68;fill-opacity:1;fill-rule:nonzero;stroke:none"
           id="path55378" />
        <path
           d="m 2721.44,7793.2 c 2.63,0 5.2,1.1 7.07,2.9 1.86,1.9 2.93,4.5 2.93,7.1 0,2.6 -1.07,5.2 -2.93,7.1 -1.87,1.8 -4.44,2.9 -7.07,2.9 -2.64,0 -5.21,-1.1 -7.08,-2.9 -1.86,-1.9 -2.92,-4.5 -2.92,-7.1 0,-2.6 1.06,-5.2 2.92,-7.1 1.87,-1.8 4.44,-2.9 7.08,-2.9"
           style="fill:#2d3e68;fill-opacity:1;fill-rule:nonzero;stroke:none"
           id="path55380" />
        <path
           d="m 2770.79,7730 c 2.63,0 5.21,1 7.07,2.9 1.86,1.9 2.93,4.4 2.93,7.1 0,2.6 -1.07,5.2 -2.93,7 -1.86,1.9 -4.44,3 -7.07,3 -2.63,0 -5.21,-1.1 -7.07,-3 -1.86,-1.8 -2.93,-4.4 -2.93,-7 0,-2.7 1.07,-5.2 2.93,-7.1 1.86,-1.9 4.44,-2.9 7.07,-2.9"
           style="fill:#2d3e68;fill-opacity:1;fill-rule:nonzero;stroke:none"
           id="path55382" />
        <path
           d="m 2921.44,7793.2 c 2.63,0 5.2,1.1 7.07,2.9 1.86,1.9 2.93,4.5 2.93,7.1 0,2.6 -1.07,5.2 -2.93,7.1 -1.87,1.8 -4.44,2.9 -7.07,2.9 -2.64,0 -5.21,-1.1 -7.08,-2.9 -1.86,-1.9 -2.92,-4.5 -2.92,-7.1 0,-2.6 1.06,-5.2 2.92,-7.1 1.87,-1.8 4.44,-2.9 7.08,-2.9"
           style="fill:#2d3e68;fill-opacity:1;fill-rule:nonzero;stroke:none"
           id="path55384" />
        <path
           d="m 2970.81,7730 c 2.63,0 5.21,1 7.07,2.9 1.86,1.9 2.93,4.4 2.93,7.1 0,2.6 -1.07,5.2 -2.93,7 -1.86,1.9 -4.44,3 -7.07,3 -2.63,0 -5.21,-1.1 -7.07,-3 -1.86,-1.8 -2.93,-4.4 -2.93,-7 0,-2.7 1.07,-5.2 2.93,-7.1 1.86,-1.9 4.44,-2.9 7.07,-2.9"
           style="fill:#2d3e68;fill-opacity:1;fill-rule:nonzero;stroke:none"
           id="path55386" />
      </g>
    </g>
  </g>
</svg>
