<?xml version="1.0" encoding="UTF-8" standalone="no"?>
<!-- Created with Inkscape (http://www.inkscape.org/) -->

<svg
   version="1.1"
   id="svg29030"
   width="82.664001"
   height="50.679993"
   viewBox="0 0 82.664002 50.679992"
   sodipodi:docname="Weather-Color-Icon-Set.eps"
   xmlns:inkscape="http://www.inkscape.org/namespaces/inkscape"
   xmlns:sodipodi="http://sodipodi.sourceforge.net/DTD/sodipodi-0.dtd"
   xmlns="http://www.w3.org/2000/svg"
   xmlns:svg="http://www.w3.org/2000/svg">
  <defs
     id="defs29034" />
  <sodipodi:namedview
     id="namedview29032"
     pagecolor="#ffffff"
     bordercolor="#000000"
     borderopacity="0.25"
     inkscape:showpageshadow="2"
     inkscape:pageopacity="0.0"
     inkscape:pagecheckerboard="0"
     inkscape:deskcolor="#d1d1d1"
     showgrid="false" />
  <g
     id="g29038"
     inkscape:groupmode="layer"
     inkscape:label="Page 1"
     transform="matrix(1.3333333,0,0,-1.3333333,-174.24933,1609.3466)">
    <g
       id="g29040"
       transform="scale(0.1)">
      <g
         id="g57861">
        <path
           d="m 1786.86,11959.9 c -1.67,0 -3.31,-0.2 -4.98,-0.2 -26.59,59.1 -85.91,100.4 -154.98,100.4 -85.33,0 -155.76,-62.9 -167.95,-144.9 -10.15,3.1 -20.91,4.8 -32.06,4.8 -60.77,0 -110.03,-49.3 -110.03,-110 0,-60.8 49.26,-110 110.03,-110 h 358.8 1.17 c 71.78,0 129.98,58.1 129.98,129.9 0,71.8 -58.2,130 -129.98,130"
           style="fill:#d1efed;fill-opacity:1;fill-rule:nonzero;stroke:none"
           id="path54692" />
        <path
           d="m 1636.87,11700 h -209.98 c -60.77,0 -110.03,49.2 -110.03,110 0,60.7 49.26,110 110.03,110 11.05,0 21.72,-1.7 31.8,-4.7 l 1.6,-0.5 c -2.22,-11.3 -3.42,-22.9 -3.42,-34.8 0,-99.4 80.58,-180 180,-180"
           style="fill:#bbdee4;fill-opacity:1;fill-rule:nonzero;stroke:none"
           id="path54694" />
        <path
           d="m 1914.58,11805.6 c 1.48,7.9 2.26,16 2.26,24.3 0,8.6 -0.83,17 -2.41,25.1 h 0.03 c 1.58,-8.1 2.41,-16.5 2.41,-25 0,-8.4 -0.79,-16.5 -2.29,-24.4 m -1.19,54.4 h -0.04 c -13.56,57.3 -65.05,99.9 -126.49,99.9 -0.69,0 -1.37,0 -2.05,0 -0.01,0 -0.01,0 -0.01,0 0.68,0 1.37,0.1 2.06,0.1 61.47,0 112.97,-42.7 126.53,-100"
           style="fill:#ffffff;fill-opacity:1;fill-rule:nonzero;stroke:none"
           id="path54696" />
        <path
           d="m 1781.88,11959.7 c 0.98,0 1.95,0.1 2.92,0.2 0,0 0,0 0.01,0 -0.98,-0.1 -1.95,-0.2 -2.93,-0.2"
           style="fill:#c2ebee;fill-opacity:1;fill-rule:nonzero;stroke:none"
           id="path54698" />
        <path
           d="m 1914.46,11855 h -0.03 c -0.32,1.7 -0.68,3.3 -1.08,5 h 0.04 c 0.39,-1.7 0.75,-3.3 1.07,-5"
           style="fill:#c2ebee;fill-opacity:1;fill-rule:nonzero;stroke:none"
           id="path54700" />
        <path
           d="m 1781.88,11959.7 c -0.09,0.2 -0.19,0.4 -0.28,0.6 0.09,-0.2 0.19,-0.4 0.28,-0.6 m -0.4,0.9 c -0.06,0.1 -0.11,0.2 -0.17,0.3 0.05,-0.1 0.11,-0.2 0.17,-0.3"
           style="fill:#c2ebee;fill-opacity:1;fill-rule:nonzero;stroke:none"
           id="path54702" />
        <path
           d="m 1781.1,11961.4 v 0 c -0.03,0 -0.05,0.1 -0.08,0.2 0.03,-0.1 0.05,-0.2 0.08,-0.2"
           style="fill:#ffffff;fill-opacity:1;fill-rule:nonzero;stroke:none"
           id="path54704" />
        <path
           d="m 1781.16,11961.3 c -0.02,0 -0.04,0 -0.06,0.1 v 0 c 0.02,-0.1 0.04,-0.1 0.06,-0.1"
           style="fill:#c2ebee;fill-opacity:1;fill-rule:nonzero;stroke:none"
           id="path54706" />
        <path
           d="m 1780.86,11961.9 c -0.04,0.1 -0.08,0.2 -0.12,0.3 0.04,-0.1 0.08,-0.2 0.12,-0.3 m -0.3,0.7 c -0.03,0 -0.05,0.1 -0.08,0.1 0.03,0 0.05,-0.1 0.08,-0.1"
           style="fill:#ffffff;fill-opacity:1;fill-rule:nonzero;stroke:none"
           id="path54708" />
        <path
           d="m 1884.52,11744.4 c 1.44,8.3 2.35,16.8 2.35,25.6 0,82.8 -67.16,150 -150,150 -18.27,0 -35.7,-3.5 -51.89,-9.4 11.25,14.2 25.46,25.9 41.61,34.4 -42.03,46 -102.46,75 -169.72,75 -15.18,0 -29.96,-1.6 -44.31,-4.4 22.74,20.8 51.07,35.5 82.58,41.5 10.3,1.8 20.88,2.9 31.72,2.9 5.88,0 11.68,-0.4 17.4,-0.9 l 2.54,-0.3 c 3.97,-0.4 7.87,-1.1 11.75,-1.8 54.06,-10.2 99.04,-46 121.93,-94.3 0.03,0 0.05,-0.1 0.08,-0.1 0.06,-0.2 0.12,-0.3 0.18,-0.4 0.04,-0.1 0.08,-0.2 0.12,-0.3 0.05,-0.1 0.11,-0.2 0.16,-0.3 0.03,-0.1 0.05,-0.2 0.08,-0.2 0.02,-0.1 0.04,-0.1 0.06,-0.1 0.05,-0.2 0.1,-0.3 0.15,-0.4 0.06,-0.1 0.11,-0.2 0.17,-0.3 0.04,-0.1 0.08,-0.2 0.12,-0.3 0.09,-0.2 0.19,-0.4 0.28,-0.6 v 0 0 c 0.98,0 1.95,0.1 2.93,0.2 0.68,0 1.36,0 2.05,0 61.44,0 112.93,-42.6 126.49,-99.9 0.4,-1.7 0.76,-3.3 1.08,-5 1.58,-8.1 2.41,-16.5 2.41,-25.1 0,-8.3 -0.78,-16.4 -2.26,-24.3 -4.43,-23.2 -15.07,-44.2 -30.06,-61.2"
           style="fill:#eaf8f7;fill-opacity:1;fill-rule:nonzero;stroke:none"
           id="path54710" />
        <path
           d="m 1786.87,11960 v 10 c -2.44,0 -4.22,-0.3 -5.37,-0.3 l 0.39,-10 9.12,4.1 c -28.15,62.6 -90.98,106.3 -164.11,106.3 -90.36,0 -164.93,-66.6 -177.84,-153.4 l 9.9,-1.5 2.92,9.6 c -11.08,3.4 -22.83,5.2 -34.99,5.2 -66.29,0 -120.02,-53.7 -120.02,-120 0,-66.3 53.73,-120 120.02,-120 h 358.8 1.18 c 77.3,0 139.97,62.6 139.98,140 -0.01,77.3 -62.68,140 -139.98,140 v -10 -10 c 33.15,0 63.09,-13.4 84.83,-35.2 21.73,-21.7 35.14,-51.7 35.15,-84.8 -0.01,-33.2 -13.42,-63.1 -35.15,-84.9 -21.74,-21.7 -51.67,-35.1 -84.83,-35.1 h -1.18 -358.8 c -27.66,0 -52.6,11.2 -70.73,29.3 -18.11,18.1 -29.29,43.1 -29.29,70.7 0,27.7 11.17,52.6 29.29,70.7 18.13,18.1 43.07,29.3 70.73,29.3 10.14,0 19.91,-1.5 29.15,-4.3 2.76,-0.9 5.81,-0.5 8.26,1.1 2.44,1.5 4.12,4.1 4.55,7 11.47,77.1 77.76,136.3 158.05,136.3 65,0 120.8,-38.8 145.87,-94.5 1.67,-3.7 5.43,-6 9.5,-5.9 2.17,0.1 3.68,0.3 4.6,0.3 v 10"
           style="fill:#2d3e68;fill-opacity:1;fill-rule:nonzero;stroke:none"
           id="path54712" />
      </g>
    </g>
  </g>
</svg>
