<?xml version="1.0" encoding="UTF-8" standalone="no"?>
<!-- Created with Inkscape (http://www.inkscape.org/) -->

<svg
   version="1.1"
   id="svg29030"
   width="82.664001"
   height="82.671021"
   viewBox="0 0 82.664002 82.67102"
   sodipodi:docname="Weather-Color-Icon-Set.eps"
   xmlns:inkscape="http://www.inkscape.org/namespaces/inkscape"
   xmlns:sodipodi="http://sodipodi.sourceforge.net/DTD/sodipodi-0.dtd"
   xmlns="http://www.w3.org/2000/svg"
   xmlns:svg="http://www.w3.org/2000/svg">
  <defs
     id="defs29034" />
  <sodipodi:namedview
     id="namedview29032"
     pagecolor="#ffffff"
     bordercolor="#000000"
     borderopacity="0.25"
     inkscape:showpageshadow="2"
     inkscape:pageopacity="0.0"
     inkscape:pagecheckerboard="0"
     inkscape:deskcolor="#d1d1d1"
     showgrid="false" />
  <g
     id="g29038"
     inkscape:groupmode="layer"
     inkscape:label="Page 1"
     transform="matrix(1.3333333,0,0,-1.3333333,-519.58533,1454.6666)">
    <g
       id="g29040"
       transform="scale(0.1)">
      <g
         id="g65004"
         inkscape:export-filename="../6b31511e/g65004.svg"
         inkscape:export-xdpi="96"
         inkscape:export-ydpi="96">
        <path
           d="m 4376.86,10799.9 c -1.67,0 -3.31,-0.2 -4.97,-0.2 -26.61,59.1 -85.92,100.4 -154.98,100.4 -85.34,0 -155.77,-62.9 -167.96,-144.9 -10.15,3.1 -20.91,4.8 -32.06,4.8 -60.77,0 -110.03,-49.3 -110.03,-110 0,-60.8 49.26,-110 110.03,-110 h 358.8 1.17 c 71.78,0 129.99,58.1 129.99,129.9 0,71.8 -58.21,130 -129.99,130"
           style="fill:#d1efed;fill-opacity:1;fill-rule:nonzero;stroke:none"
           id="path54870" />
        <path
           d="m 4226.87,10540 h -209.98 c -60.77,0 -110.03,49.2 -110.03,110 0,60.7 49.26,110 110.03,110 11.05,0 21.72,-1.7 31.8,-4.7 l 1.6,-0.5 c -2.22,-11.3 -3.43,-22.9 -3.43,-34.8 0,-99.4 80.59,-180 180.01,-180"
           style="fill:#bbdee4;fill-opacity:1;fill-rule:nonzero;stroke:none"
           id="path54872" />
        <path
           d="m 4505.1,10648.6 c 1.15,6.9 1.75,14.1 1.75,21.3 0,3.4 -0.13,6.7 -0.38,10 h 0.02 c 0.25,-3.2 0.38,-6.6 0.38,-9.9 0,-7.3 -0.61,-14.5 -1.77,-21.4 m 0.91,36.3 h -0.02 c -4.7,41 -28.42,76.1 -62.1,96.4 h 0.07 c 33.66,-20.3 57.36,-55.4 62.05,-96.4 m -71.13,101.4 h -0.09 c -17.44,8.7 -37.12,13.6 -57.93,13.6 -1.67,0 -3.31,-0.2 -4.97,-0.2 1.67,0 3.29,0.3 4.97,0.3 20.85,0 40.56,-4.9 58.02,-13.7"
           style="fill:#ffffff;fill-opacity:1;fill-rule:nonzero;stroke:none"
           id="path54874" />
        <path
           d="m 4443.96,10781.3 h -0.07 c -2.96,1.8 -6,3.5 -9.1,5 h 0.09 c 3.1,-1.5 6.13,-3.2 9.08,-5"
           style="fill:#c2ebee;fill-opacity:1;fill-rule:nonzero;stroke:none"
           id="path54876" />
        <path
           d="m 4506.49,10679.9 h -0.02 c -0.13,1.7 -0.29,3.4 -0.48,5 h 0.02 c 0.19,-1.6 0.35,-3.3 0.48,-5"
           style="fill:#c2ebee;fill-opacity:1;fill-rule:nonzero;stroke:none"
           id="path54878" />
        <path
           d="m 4371.89,10799.7 c -0.1,0.2 -0.19,0.4 -0.29,0.6 0.1,-0.2 0.19,-0.4 0.29,-0.6 m -0.41,0.9 c -0.06,0.1 -0.11,0.2 -0.17,0.3 0.06,-0.1 0.11,-0.2 0.17,-0.3 m -0.32,0.7 c -0.04,0.1 -0.09,0.1 -0.13,0.3 0.04,-0.2 0.09,-0.2 0.13,-0.3 m -0.3,0.6 c -0.04,0.1 -0.07,0.2 -0.11,0.2 0.04,0 0.07,-0.1 0.11,-0.2 m -0.31,0.7 c -0.01,0 -0.02,0 -0.03,0 0.01,0 0.02,0 0.03,0"
           style="fill:#ffffff;fill-opacity:1;fill-rule:nonzero;stroke:none"
           id="path54880" />
        <path
           d="m 4474.52,10584.4 c 1.44,8.3 2.34,16.8 2.34,25.6 0,82.8 -67.15,150 -149.99,150 -18.27,0 -35.7,-3.5 -51.89,-9.4 11.25,14.2 25.46,25.8 41.61,34.4 -42.03,46 -102.46,75 -169.73,75 -15.16,0 -29.95,-1.6 -44.3,-4.4 22.74,20.8 51.07,35.5 82.58,41.5 10.3,1.8 20.88,2.9 31.73,2.9 5.87,0 11.66,-0.4 17.39,-0.9 l 2.54,-0.3 c 3.97,-0.4 7.87,-1.1 11.75,-1.8 54.08,-10.2 99.08,-46 121.97,-94.4 0.01,0 0.02,0 0.03,0 0.07,-0.2 0.14,-0.3 0.2,-0.5 0.04,0 0.07,-0.1 0.11,-0.2 0.05,-0.1 0.11,-0.2 0.17,-0.3 0.04,-0.2 0.09,-0.2 0.13,-0.3 0.05,-0.1 0.1,-0.3 0.15,-0.4 0.06,-0.1 0.11,-0.2 0.17,-0.3 0.04,-0.1 0.08,-0.2 0.12,-0.3 0.1,-0.2 0.19,-0.4 0.29,-0.6 v 0 0 c 1.66,0 3.3,0.2 4.97,0.2 20.81,0 40.49,-4.9 57.93,-13.6 3.1,-1.5 6.14,-3.2 9.1,-5 33.68,-20.3 57.4,-55.4 62.1,-96.4 0.19,-1.6 0.35,-3.3 0.48,-5 0.25,-3.3 0.38,-6.6 0.38,-10 0,-7.2 -0.6,-14.4 -1.75,-21.3 -4.07,-24.4 -14.96,-46.5 -30.58,-64.2"
           style="fill:#eaf8f7;fill-opacity:1;fill-rule:nonzero;stroke:none"
           id="path54882" />
        <path
           d="m 4376.87,10799.8 v 10 c -2.47,0 -4.22,-0.2 -5.32,-0.2 l 0.35,-10 9.12,4.1 c -28.16,62.6 -90.98,106.3 -164.1,106.3 -90.38,-0.1 -164.95,-66.7 -177.84,-153.4 l 9.9,-1.5 2.91,9.6 c -11.07,3.3 -22.83,5.2 -35,5.2 -66.28,0 -120,-53.7 -120,-120 0,-66.3 53.72,-120 120,-120 h 358.82 1.16 c 77.31,0 139.99,62.6 140,139.9 -0.01,77.3 -62.68,140 -140,140 v -10 -10 c 33.16,0 63.1,-13.4 84.85,-35.1 21.73,-21.8 35.14,-51.7 35.15,-84.9 -0.01,-33.1 -13.42,-63.1 -35.15,-84.8 -21.75,-21.7 -51.68,-35.1 -84.85,-35.1 h -1.16 -358.82 c -27.64,0 -52.58,11.1 -70.71,29.3 -18.12,18.1 -29.29,43 -29.29,70.7 0,27.6 11.17,52.6 29.29,70.7 18.13,18.1 43.06,29.3 70.71,29.3 10.16,0 19.93,-1.5 29.17,-4.4 2.76,-0.8 5.81,-0.4 8.26,1.1 2.44,1.6 4.12,4.2 4.55,7 11.45,77.1 77.74,136.4 158.05,136.4 64.98,0 120.79,-38.8 145.87,-94.5 1.67,-3.8 5.4,-6.1 9.47,-5.9 2.22,0.1 3.71,0.2 4.61,0.2 v 10"
           style="fill:#2d3e68;fill-opacity:1;fill-rule:nonzero;stroke:none"
           id="path54884" />
        <path
           d="m 3999.04,10466.2 -64.04,-80 c -3.46,-4.3 -2.76,-10.6 1.55,-14 4.32,-3.5 10.61,-2.8 14.06,1.5 l 64.04,80 c 3.45,4.3 2.76,10.6 -1.55,14.1 -4.32,3.4 -10.61,2.7 -14.06,-1.6"
           style="fill:#2d3e68;fill-opacity:1;fill-rule:nonzero;stroke:none"
           id="path54886" />
        <path
           d="m 4119.04,10466.2 -128.09,-160 c -3.45,-4.3 -2.75,-10.6 1.56,-14 4.31,-3.5 10.6,-2.8 14.06,1.5 l 128.08,160 c 3.45,4.3 2.76,10.6 -1.55,14.1 -4.31,3.4 -10.61,2.7 -14.06,-1.6"
           style="fill:#2d3e68;fill-opacity:1;fill-rule:nonzero;stroke:none"
           id="path54888" />
        <path
           d="m 4239.06,10466.2 -64.04,-80 c -3.46,-4.3 -2.76,-10.6 1.55,-14 4.32,-3.5 10.61,-2.8 14.06,1.5 l 64.04,80 c 3.45,4.3 2.76,10.6 -1.56,14.1 -4.31,3.4 -10.6,2.7 -14.05,-1.6"
           style="fill:#2d3e68;fill-opacity:1;fill-rule:nonzero;stroke:none"
           id="path54890" />
        <path
           d="m 4359.06,10466.2 -128.09,-160 c -3.45,-4.3 -2.75,-10.6 1.56,-14 4.31,-3.5 10.6,-2.8 14.06,1.5 l 128.08,160 c 3.45,4.3 2.76,10.6 -1.55,14.1 -4.32,3.4 -10.61,2.7 -14.06,-1.6"
           style="fill:#2d3e68;fill-opacity:1;fill-rule:nonzero;stroke:none"
           id="path54892" />
      </g>
    </g>
  </g>
</svg>
