<?xml version="1.0" encoding="UTF-8" standalone="no"?>
<!-- Created with Inkscape (http://www.inkscape.org/) -->

<svg
   version="1.1"
   id="svg29030"
   width="82.666672"
   height="82.666504"
   viewBox="0 0 82.666672 82.666503"
   sodipodi:docname="Weather-Color-Icon-Set.eps"
   xmlns:inkscape="http://www.inkscape.org/namespaces/inkscape"
   xmlns:sodipodi="http://sodipodi.sourceforge.net/DTD/sodipodi-0.dtd"
   xmlns="http://www.w3.org/2000/svg"
   xmlns:svg="http://www.w3.org/2000/svg">
  <defs
     id="defs29034" />
  <sodipodi:namedview
     id="namedview29032"
     pagecolor="#ffffff"
     bordercolor="#000000"
     borderopacity="0.25"
     inkscape:showpageshadow="2"
     inkscape:pageopacity="0.0"
     inkscape:pagecheckerboard="0"
     inkscape:deskcolor="#d1d1d1"
     showgrid="false" />
  <g
     id="g29038"
     inkscape:groupmode="layer"
     inkscape:label="Page 1"
     transform="matrix(1.3333333,0,0,-1.3333333,-179.58266,255.99987)">
    <g
       id="g29040"
       transform="scale(0.1)">
      <path
         d="m 1656.87,1910 -80,-100 -132.15,12.1 32.15,-142.1 -120.01,-70 130.01,-70 -42.14,-142.2 142.13,32.2 70.01,-120 69.99,120 142.13,-32.2 -22.12,132.2 109.99,80 -109.99,80 22.12,132.1 -132.12,-12.1 -80,100"
         style="fill:#d0eff3;fill-opacity:1;fill-rule:nonzero;stroke:none"
         id="path57410" />
      <path
         d="m 1656.87,1310 -70.01,120 -20.04,-4.6 -21.65,-4.9 -100.44,-22.7 1.6,5.4 0.54,-3.2 210,210 v -300"
         style="fill:#ade0ea;fill-opacity:1;fill-rule:nonzero;stroke:none"
         id="path57412" />
      <path
         d="m 1486.87,1540 v 0 l -130.01,70 h 290 l -159.99,-70"
         style="fill:#ade0ea;fill-opacity:1;fill-rule:nonzero;stroke:none"
         id="path57414" />
      <path
         d="m 1956.86,1610 h -290 l 180.01,80 109.99,-80"
         style="fill:#e8f7fa;fill-opacity:1;fill-rule:nonzero;stroke:none"
         id="path57416" />
      <path
         d="m 1868.64,1820 v 0 l 0.35,2.1 -0.35,-2.1"
         style="fill:#ffffff;fill-opacity:1;fill-rule:nonzero;stroke:none"
         id="path57418" />
      <path
         d="m 1656.87,1610 v 300 l 80,-100 132.12,12.1 -0.35,-2.1 h -1.77 l -210,-210"
         style="fill:#e8f7fa;fill-opacity:1;fill-rule:nonzero;stroke:none"
         id="path57420" />
      <path
         d="m 1563.8,1888.9 85.97,-86 c 1.89,-1.9 4.4,-2.9 7.08,-2.9 2.67,0 5.18,1 7.07,2.9 l 85.99,86 c 3.91,3.9 3.91,10.2 0,14.1 -3.9,3.9 -10.23,3.9 -14.14,0 l -78.92,-78.9 -78.91,78.9 c -3.9,3.9 -10.24,3.9 -14.14,0 -3.91,-3.9 -3.91,-10.2 0,-14.1"
         style="fill:#2d3e68;fill-opacity:1;fill-rule:nonzero;stroke:none"
         id="path57422" />
      <path
         d="m 1577.94,1316.9 78.91,78.9 78.92,-78.9 c 3.91,-3.9 10.24,-3.9 14.14,0 3.91,3.9 3.91,10.2 0,14.1 l -85.99,86 c -3.91,3.9 -10.24,3.9 -14.14,0 l -85.98,-86 c -3.91,-3.9 -3.91,-10.2 0,-14.1 3.9,-3.9 10.24,-3.9 14.14,0"
         style="fill:#2d3e68;fill-opacity:1;fill-rule:nonzero;stroke:none"
         id="path57424" />
      <path
         d="m 1377.98,1516.9 85.98,86 c 3.9,3.9 3.9,10.2 0,14.1 l -85.98,86 c -3.91,3.9 -10.24,3.9 -14.14,0 -3.91,-3.9 -3.91,-10.2 0,-14.1 l 78.9,-78.9 -78.9,-79 c -3.91,-3.9 -3.91,-10.2 0,-14.1 3.9,-3.9 10.23,-3.9 14.14,0"
         style="fill:#2d3e68;fill-opacity:1;fill-rule:nonzero;stroke:none"
         id="path57426" />
      <path
         d="m 1949.93,1531 -78.9,79 78.9,78.9 c 3.91,3.9 3.91,10.2 0,14.1 -3.9,3.9 -10.23,3.9 -14.14,0 l -85.98,-86 c -3.9,-3.9 -3.9,-10.2 0,-14.1 l 85.98,-86 c 3.91,-3.9 10.24,-3.9 14.14,0 3.91,3.9 3.91,10.2 0,14.1"
         style="fill:#2d3e68;fill-opacity:1;fill-rule:nonzero;stroke:none"
         id="path57428" />
      <path
         d="m 1395.28,1739.9 h 121.58 c 2.64,0 5.21,1.1 7.08,2.9 1.86,1.9 2.93,4.5 2.93,7.1 v 121.6 c 0,5.5 -4.48,10 -10,10 -5.53,0 -10,-4.5 -10,-10 v -111.6 h -111.59 c -5.52,0 -10,-4.5 -10,-10 0,-5.5 4.48,-10 10,-10"
         style="fill:#2d3e68;fill-opacity:1;fill-rule:nonzero;stroke:none"
         id="path57430" />
      <path
         d="m 1806.87,1348.4 v 111.5 l 111.58,0.1 c 5.52,0 10,4.4 10,10 0,5.5 -4.48,10 -10,10 l -121.59,-0.1 c -5.52,0 -9.99,-4.4 -9.99,-10 v -121.5 c 0,-5.6 4.47,-10 10,-10 5.52,0 10,4.4 10,10"
         style="fill:#2d3e68;fill-opacity:1;fill-rule:nonzero;stroke:none"
         id="path57432" />
      <path
         d="M 1526.87,1348.4 V 1470 c 0,2.6 -1.07,5.2 -2.93,7 -1.87,1.9 -4.44,3 -7.07,3 h -121.59 c -5.52,0 -10,-4.5 -10,-10 0,-5.6 4.48,-10 10,-10 h 111.59 v -111.6 c 0,-5.5 4.47,-10 10,-10 5.52,0 10,4.5 10,10"
         style="fill:#2d3e68;fill-opacity:1;fill-rule:nonzero;stroke:none"
         id="path57434" />
      <path
         d="m 1918.39,1759.9 h -111.58 v 111.6 c 0,5.5 -4.48,10 -10,10 -5.53,0 -10,-4.5 -10,-10 v -121.6 c 0,-2.6 1.06,-5.2 2.93,-7 1.86,-1.9 4.43,-3 7.07,-3 h 121.58 c 5.52,0 10,4.5 10,10 0,5.5 -4.48,10 -10,10"
         style="fill:#2d3e68;fill-opacity:1;fill-rule:nonzero;stroke:none"
         id="path57436" />
      <path
         d="m 1356.87,1600 h 600 c 5.52,0 10,4.4 10,10 0,5.5 -4.48,10 -10,10 h -600 c -5.53,0 -10,-4.5 -10,-10 0,-5.6 4.47,-10 10,-10"
         style="fill:#2d3e68;fill-opacity:1;fill-rule:nonzero;stroke:none"
         id="path57438" />
      <path
         d="m 1646.87,1910 v -600 c 0,-5.6 4.47,-10 10,-10 5.52,0 10,4.4 10,10 v 600 c 0,5.5 -4.48,10 -10,10 -5.53,0 -10,-4.5 -10,-10"
         style="fill:#2d3e68;fill-opacity:1;fill-rule:nonzero;stroke:none"
         id="path57440" />
      <path
         d="m 1437.65,1815 424.27,-424.2 c 3.91,-3.9 10.24,-3.9 14.15,0 3.9,3.9 3.9,10.2 0,14.1 l -424.28,424.3 c -3.91,3.9 -10.24,3.9 -14.14,0 -3.91,-3.9 -3.91,-10.3 0,-14.2"
         style="fill:#2d3e68;fill-opacity:1;fill-rule:nonzero;stroke:none"
         id="path57442" />
      <path
         d="m 1861.92,1829.2 -424.25,-424.3 c -3.91,-3.9 -3.91,-10.2 0,-14.1 3.9,-3.9 10.23,-3.9 14.14,0 l 424.26,424.2 c 3.9,3.9 3.9,10.3 0,14.2 -3.91,3.9 -10.24,3.9 -14.15,0"
         style="fill:#2d3e68;fill-opacity:1;fill-rule:nonzero;stroke:none"
         id="path57444" />
    </g>
  </g>
</svg>
