<?xml version="1.0" encoding="UTF-8" standalone="no"?>
<!-- Created with Inkscape (http://www.inkscape.org/) -->

<svg
   version="1.1"
   id="svg29030"
   width="82.666626"
   height="82.671021"
   viewBox="0 0 82.666626 82.67102"
   sodipodi:docname="Weather-Color-Icon-Set.eps"
   xmlns:inkscape="http://www.inkscape.org/namespaces/inkscape"
   xmlns:sodipodi="http://sodipodi.sourceforge.net/DTD/sodipodi-0.dtd"
   xmlns="http://www.w3.org/2000/svg"
   xmlns:svg="http://www.w3.org/2000/svg">
  <defs
     id="defs29034" />
  <sodipodi:namedview
     id="namedview29032"
     pagecolor="#ffffff"
     bordercolor="#000000"
     borderopacity="0.25"
     inkscape:showpageshadow="2"
     inkscape:pageopacity="0.0"
     inkscape:pagecheckerboard="0"
     inkscape:deskcolor="#d1d1d1"
     showgrid="false" />
  <g
     id="g29038"
     inkscape:groupmode="layer"
     inkscape:label="Page 1"
     transform="matrix(1.3333333,0,0,-1.3333333,-1710.2533,1454.6666)">
    <g
       id="g29040"
       transform="scale(0.1)">
      <path
         d="m 13306.9,10799.9 c -1.7,0 -3.4,-0.2 -5,-0.2 -26.6,59.1 -85.9,100.4 -155,100.4 -85.3,0 -155.8,-62.9 -167.9,-144.9 -10.2,3.1 -21,4.8 -32.1,4.8 -60.8,0 -110,-49.3 -110,-110 0,-60.8 49.2,-110 110,-110 h 358.8 1.2 c 71.7,0 129.9,58.1 129.9,129.9 0,71.8 -58.2,130 -129.9,130"
         style="fill:#d1efed;fill-opacity:1;fill-rule:nonzero;stroke:none"
         id="path56610" />
      <path
         d="m 13156.9,10540 h -210 c -60.8,0 -110,49.2 -110,110 0,60.7 49.2,110 110,110 11,0 21.7,-1.7 31.8,-4.7 l 1.6,-0.5 c -2.2,-11.3 -3.4,-22.9 -3.4,-34.8 0,-99.4 80.5,-180 180,-180"
         style="fill:#bbdee4;fill-opacity:1;fill-rule:nonzero;stroke:none"
         id="path56612" />
      <path
         d="m 13435.1,10648.6 c 1.1,6.9 1.7,14.1 1.7,21.3 0,71.8 -58.2,130 -129.9,130 -1.7,0 -3.4,-0.2 -5,-0.2 1.7,0 3.3,0.3 5,0.3 71.8,0 130,-58.2 130,-130 0,-7.3 -0.6,-14.5 -1.8,-21.4 m -133.2,151.1 c -0.1,0.2 -0.2,0.4 -0.3,0.6 0.1,-0.2 0.2,-0.4 0.3,-0.6 m -0.4,0.9 c -0.1,0.1 -0.1,0.2 -0.2,0.3 0.1,-0.1 0.1,-0.2 0.2,-0.3 m -0.3,0.7 c -0.1,0.1 -0.1,0.1 -0.2,0.3 0.1,-0.2 0.1,-0.2 0.2,-0.3 m -0.3,0.6 c -0.1,0.1 -0.1,0.2 -0.1,0.2 0,0 0,-0.1 0.1,-0.2 m -0.3,0.7 c -0.1,0 -0.1,0 -0.1,0 0,0 0,0 0.1,0"
         style="fill:#ffffff;fill-opacity:1;fill-rule:nonzero;stroke:none"
         id="path56614" />
      <path
         d="m 13404.5,10584.4 c 1.5,8.3 2.4,16.8 2.4,25.6 0,82.8 -67.2,150 -150,150 -18.3,0 -35.7,-3.5 -51.9,-9.4 11.2,14.2 25.5,25.8 41.6,34.4 -42,46 -102.5,75 -169.7,75 -15.2,0 -30,-1.6 -44.3,-4.4 22.7,20.8 51,35.5 82.5,41.5 10.3,1.8 20.9,2.9 31.8,2.9 5.8,0 11.6,-0.4 17.4,-0.9 l 2.5,-0.3 c 4,-0.4 7.9,-1.1 11.8,-1.8 54,-10.2 99,-46 121.9,-94.4 0,0 0,0 0.1,0 0,-0.2 0.1,-0.3 0.2,-0.5 0,0 0,-0.1 0.1,-0.2 0,-0.1 0.1,-0.2 0.1,-0.3 0.1,-0.2 0.1,-0.2 0.2,-0.3 0,-0.1 0.1,-0.3 0.1,-0.4 0.1,-0.1 0.1,-0.2 0.2,-0.3 0,-0.1 0.1,-0.2 0.1,-0.3 0.1,-0.2 0.2,-0.4 0.3,-0.6 v 0 0 c 1.6,0 3.3,0.2 5,0.2 71.7,0 129.9,-58.2 129.9,-130 0,-7.2 -0.6,-14.4 -1.7,-21.3 -4.1,-24.4 -15,-46.5 -30.6,-64.2"
         style="fill:#eaf8f7;fill-opacity:1;fill-rule:nonzero;stroke:none"
         id="path56616" />
      <path
         d="m 13184.2,10670 -147.3,-160 h 74.6 l -32.5,-140 157.9,170 h -73.7 l 21,130"
         style="fill:#f4f24c;fill-opacity:1;fill-rule:nonzero;stroke:none"
         id="path56618" />
      <path
         d="m 13236.9,10530 h 70 c 77.3,0 140,62.5 140,139.8 0,77.3 -62.7,140 -140,140 -2.4,0 -4.2,-0.2 -5.4,-0.3 l 0.4,-9.9 9.1,4.1 c -28.1,62.6 -90.9,106.3 -164.1,106.3 -90.3,-0.1 -164.9,-66.7 -177.8,-153.4 l 9.9,-1.5 2.9,9.6 c -11.1,3.3 -22.8,5.2 -35,5.2 -66.3,0 -120,-53.8 -120,-120 0,-66.3 53.7,-119.9 120,-119.9 h 117.7 c 5.5,0 10,4.4 10,10 0,5.5 -4.5,10 -10,10 h -117.7 c -27.7,0 -52.6,11.1 -70.7,29.2 -18.1,18.1 -29.3,43 -29.3,70.7 0,27.6 11.2,52.5 29.3,70.7 18.1,18.1 43.1,29.3 70.7,29.3 10.1,0 19.9,-1.6 29.2,-4.4 2.7,-0.8 5.8,-0.4 8.2,1.1 2.5,1.6 4.1,4.2 4.6,7 11.4,77.1 77.7,136.4 158,136.4 65,0 120.8,-38.9 145.9,-94.6 1.7,-3.7 5.4,-6 9.5,-5.8 2.2,0.1 3.6,0.2 4.6,0.2 33.1,0 63.1,-13.4 84.8,-35.1 21.7,-21.8 35.2,-51.7 35.2,-84.9 0,-33.2 -13.4,-63 -35.2,-84.8 -21.7,-21.6 -51.6,-35 -84.8,-35 h -1.2 -68.8 c -5.6,0 -10,-4.5 -10,-10 0,-5.6 4.4,-10 10,-10"
         style="fill:#2d3e68;fill-opacity:1;fill-rule:nonzero;stroke:none"
         id="path56620" />
      <path
         d="m 12869,10341.3 -28.1,-35.1 c -3.4,-4.3 -2.7,-10.6 1.6,-14 4.3,-3.5 10.6,-2.8 14,1.5 l 28.1,35.1 c 3.5,4.3 2.8,10.6 -1.5,14.1 -4.4,3.4 -10.6,2.7 -14.1,-1.6"
         style="fill:#2d3e68;fill-opacity:1;fill-rule:nonzero;stroke:none"
         id="path56622" />
      <path
         d="m 12969,10466.2 -58.9,-73.6 c -3.5,-4.3 -2.8,-10.6 1.5,-14.1 4.3,-3.4 10.6,-2.7 14.1,1.6 l 58.9,73.6 c 3.5,4.3 2.8,10.6 -1.5,14.1 -4.3,3.4 -10.6,2.7 -14.1,-1.6"
         style="fill:#2d3e68;fill-opacity:1;fill-rule:nonzero;stroke:none"
         id="path56624" />
      <path
         d="m 13228.8,10390.8 -67.7,-84.6 c -3.5,-4.3 -2.8,-10.6 1.5,-14 4.3,-3.5 10.6,-2.8 14.1,1.5 l 67.7,84.6 c 3.5,4.4 2.8,10.6 -1.6,14.1 -4.3,3.5 -10.6,2.8 -14,-1.6"
         style="fill:#2d3e68;fill-opacity:1;fill-rule:nonzero;stroke:none"
         id="path56626" />
      <path
         d="m 13289.1,10466.2 -16,-20 c -3.5,-4.3 -2.7,-10.6 1.6,-14 4.3,-3.5 10.6,-2.8 14,1.5 l 16,20 c 3.5,4.3 2.8,10.6 -1.5,14.1 -4.4,3.4 -10.7,2.7 -14.1,-1.6"
         style="fill:#2d3e68;fill-opacity:1;fill-rule:nonzero;stroke:none"
         id="path56628" />
      <path
         d="m 13184.2,10669.9 -7.3,6.8 -147.4,-160 c -2.7,-3 -3.4,-7.2 -1.8,-10.8 1.6,-3.7 5.2,-6 9.2,-6 h 62 l -29.7,-127.8 c -1,-4.4 1.1,-8.9 5.1,-11.1 4,-2.1 8.9,-1.2 12,2.1 l 157.9,170 c 2.7,2.9 3.4,7.1 1.8,10.8 -1.6,3.6 -5.2,6 -9.1,6 h -62 l 19.2,118.4 c 0.7,4.3 -1.5,8.6 -5.5,10.6 -4,1.9 -8.7,1 -11.7,-2.2 l 7.3,-6.8 -9.8,1.6 -21.1,-130 c -0.5,-2.9 0.4,-5.9 2.3,-8.1 1.9,-2.2 4.6,-3.5 7.6,-3.5 h 50.7 l -116.7,-125.7 24.1,103.4 c 0.7,3 0,6.1 -1.9,8.5 -1.9,2.4 -4.8,3.8 -7.9,3.8 h -51.8 l 131.9,143.2 -7.4,6.8 -9.8,1.6 9.8,-1.6"
         style="fill:#2d3e68;fill-opacity:1;fill-rule:nonzero;stroke:none"
         id="path56630" />
    </g>
  </g>
</svg>
